<?xml version="1.0" encoding="iso-8859-1"?>
<!-- Generator: Adobe Illustrator 19.0.0, SVG Export Plug-In . SVG Version: 6.00 Build 0)  -->
<svg xmlns="http://www.w3.org/2000/svg" xmlns:xlink="http://www.w3.org/1999/xlink" version="1.1" id="Layer_1" x="0px" y="0px" viewBox="0 0 299.963 299.963" style="enable-background:new 0 0 299.963 299.963;" xml:space="preserve" width="512px" height="512px">
<g>
	<g>
		<path d="M283.163,59.856h-65.471V31.364c0-3.976-3.224-7.2-7.2-7.2H89.471c-3.976,0-7.2,3.224-7.2,7.2v28.493H16.8    c-9.263,0-16.8,7.537-16.8,16.8c0,8.011,0,174.346,0,182.342c0,9.263,7.537,16.8,16.8,16.8h266.363c9.263,0,16.8-7.537,16.8-16.8    c0-7.99,0-174.324,0-182.342C299.963,67.393,292.426,59.856,283.163,59.856z M96.671,38.564h106.62v21.292H96.671V38.564z     M285.563,258.999c0,1.324-1.076,2.4-2.4,2.4H16.8c-1.323,0-2.4-1.076-2.4-2.4v-83.971h98.381v13.968c0,3.977,3.224,7.2,7.2,7.2    h60c3.977,0,7.2-3.223,7.2-7.2v-13.968h98.382V258.999z M127.181,181.796v-13.968V153.86h45.6v13.968v13.968H127.181z     M285.563,160.628h-98.382V146.66c0-3.977-3.223-7.2-7.2-7.2h-60c-3.976,0-7.2,3.223-7.2,7.2v13.968H14.4V76.656    c0-1.324,1.077-2.4,2.4-2.4h266.363c1.324,0,2.4,1.076,2.4,2.4V160.628z" fill="#FFFFFF"/>
	</g>
</g>
<g>
</g>
<g>
</g>
<g>
</g>
<g>
</g>
<g>
</g>
<g>
</g>
<g>
</g>
<g>
</g>
<g>
</g>
<g>
</g>
<g>
</g>
<g>
</g>
<g>
</g>
<g>
</g>
<g>
</g>
</svg>
