<?xml version="1.0" encoding="iso-8859-1"?>
<!-- Generator: Adobe Illustrator 19.0.0, SVG Export Plug-In . SVG Version: 6.00 Build 0)  -->
<svg xmlns="http://www.w3.org/2000/svg" xmlns:xlink="http://www.w3.org/1999/xlink" version="1.1" id="Layer_1" x="0px" y="0px" viewBox="0 0 512 512" style="enable-background:new 0 0 512 512;" xml:space="preserve" width="512px" height="512px">
<g>
	<g>
		<path d="M0,150.988V490.58h512V150.988H0z M136.098,416.392H73.404v-31.347h62.694V416.392z M136.098,352.653H73.404v-31.347    h62.694V352.653z M136.098,288.914H73.404v-31.347h62.694V288.914z M236.931,416.392h-62.694v-31.347h62.694V416.392z     M236.931,352.653h-62.694v-31.347h62.694V352.653z M236.931,288.914h-62.694v-31.347h62.694V288.914z M337.763,416.392h-62.694    v-31.347h62.694V416.392z M337.763,352.653h-62.694v-31.347h62.694V352.653z M337.763,288.914h-62.694v-31.347h62.694V288.914z     M337.763,225.176h-62.694v-31.347h62.694V225.176z M438.596,352.653h-62.694v-31.347h62.694V352.653z M438.596,288.914h-62.694    v-31.347h62.694V288.914z M438.596,225.176h-62.694v-31.347h62.694V225.176z" fill="#FFFFFF"/>
	</g>
</g>
<g>
	<g>
		<polygon points="403.331,21.42 403.331,79.935 371.984,79.935 371.984,21.42 140.016,21.42 140.016,79.935 108.669,79.935     108.669,21.42 0,21.42 0,119.641 512,119.641 512,21.42   " fill="#FFFFFF"/>
	</g>
</g>
<g>
</g>
<g>
</g>
<g>
</g>
<g>
</g>
<g>
</g>
<g>
</g>
<g>
</g>
<g>
</g>
<g>
</g>
<g>
</g>
<g>
</g>
<g>
</g>
<g>
</g>
<g>
</g>
<g>
</g>
</svg>
