<?xml version="1.0" encoding="iso-8859-1"?>
<!-- Generator: Adobe Illustrator 18.1.1, SVG Export Plug-In . SVG Version: 6.00 Build 0)  -->
<svg version="1.1" id="Capa_1" xmlns="http://www.w3.org/2000/svg" xmlns:xlink="http://www.w3.org/1999/xlink" x="0px" y="0px"
	 viewBox="0 0 352.976 352.976" style="enable-background:new 0 0 352.976 352.976;" xml:space="preserve">
<g>
	<path style="fill:#010002;" d="M331.985,259.702c0.406-0.752,0.782-1.527,1.17-2.291c0.889-1.707,1.778-3.419,2.607-5.161
		c0.555-1.158,1.062-2.345,1.593-3.514c0.627-1.39,1.271-2.781,1.862-4.195c0.579-1.378,1.11-2.787,1.647-4.183
		c0.489-1.253,0.996-2.506,1.456-3.777c0.531-1.456,1.008-2.93,1.498-4.404c0.418-1.259,0.859-2.506,1.247-3.777
		c0.436-1.426,0.823-2.87,1.223-4.314c0.376-1.354,0.782-2.697,1.122-4.069c0.346-1.343,0.627-2.697,0.937-4.052
		c0.346-1.486,0.698-2.966,1.002-4.469c0.251-1.235,0.442-2.482,0.668-3.723c0.292-1.635,0.603-3.27,0.847-4.917
		c0.167-1.116,0.286-2.238,0.43-3.359c0.233-1.784,0.483-3.568,0.656-5.37c0.107-1.08,0.161-2.166,0.251-3.252
		c0.143-1.844,0.31-3.67,0.4-5.525c0.084-1.683,0.095-3.371,0.125-5.066c0.024-1.217,0.095-2.429,0.095-3.658
		c0-0.03,0-0.066,0-0.101s0-0.066,0-0.101c0-84.932-59.854-155.968-140.591-172.478c-0.107-0.018-0.209-0.048-0.316-0.072
		c-2.327-0.471-4.672-0.877-7.035-1.259c-0.656-0.107-1.313-0.233-1.975-0.334c-1.868-0.28-3.765-0.501-5.651-0.722
		c-1.11-0.131-2.208-0.28-3.324-0.394c-1.617-0.155-3.246-0.257-4.869-0.37c-1.354-0.095-2.691-0.221-4.057-0.28
		c-0.179-0.006-0.364-0.03-0.549-0.036L173.887,0l0.197,0.358c-42.639,0.579-81.651,16.349-111.879,42.15l0.382-1.933L48.326,55.701
		c-0.042,0.042-0.078,0.09-0.119,0.131c-1.862,1.975-3.67,3.992-5.442,6.05c-0.054,0.066-0.107,0.125-0.161,0.191
		c-1.742,2.029-3.431,4.099-5.078,6.212c-0.101,0.131-0.209,0.263-0.31,0.394c-1.551,1.993-3.055,4.022-4.523,6.086
		c-0.197,0.28-0.394,0.555-0.597,0.835c-1.337,1.909-2.631,3.843-3.896,5.806c-0.298,0.465-0.597,0.925-0.889,1.384
		c-1.128,1.79-2.226,3.604-3.294,5.442c-0.388,0.662-0.77,1.325-1.146,1.987c-0.943,1.671-1.856,3.353-2.745,5.054
		c-0.453,0.859-0.889,1.724-1.331,2.59c-0.776,1.545-1.528,3.103-2.261,4.678c-0.489,1.05-0.961,2.1-1.432,3.156
		c-0.632,1.438-1.247,2.876-1.85,4.332c-0.501,1.223-0.985,2.458-1.456,3.693c-0.507,1.331-1.014,2.667-1.492,4.01
		c-0.495,1.384-0.961,2.781-1.42,4.183c-0.406,1.241-0.811,2.476-1.187,3.729c-0.471,1.551-0.901,3.109-1.331,4.672
		c-0.31,1.128-0.621,2.261-0.907,3.401c-0.436,1.724-0.823,3.461-1.205,5.203c-0.227,1.014-0.459,2.029-0.662,3.055
		c-0.382,1.921-0.716,3.849-1.032,5.782c-0.143,0.877-0.31,1.748-0.442,2.631c-0.328,2.16-0.591,4.338-0.829,6.516
		c-0.078,0.686-0.179,1.366-0.245,2.053c-0.257,2.572-0.448,5.155-0.591,7.745c-0.018,0.322-0.054,0.644-0.072,0.973
		c-0.143,2.918-0.227,5.842-0.227,8.783c0,0.03,0,0.06,0,0.09c0,0.03,0,0.06,0,0.095c0,97.23,79.103,176.333,176.333,176.333
		c64.257,0,120.573-34.566,151.391-86.06c0.054-0.09,0.101-0.173,0.149-0.263C329.407,264.356,330.726,262.053,331.985,259.702z
		 M195.713,27.078c3.162,0.794,12.435,4.756,19.571,7.96c0.042,1.933,0.263,4.362,0.704,7.494c0.179,1.235,0.358,2.303,0.513,3.24
		c0.137,0.865,0.298,1.808,0.37,2.434c-0.961,0.758-3.085,2.082-5.305,3.467l-1.575,0.979c-4.791,2.995-10.072,4.988-14.732,6.749
		c-5.209,1.969-9.863,3.729-13.39,6.659h-1.36c-5.525,0-6.003,4.284-6.796,11.385c-0.835,7.554-0.34,13.676,0.06,18.599
		c0.286,3.497,0.531,6.516,0.084,8.3c-0.686,2.769-0.847,5.633-0.985,8.157c-0.09,1.617-0.221,3.986-0.531,4.964
		c-1.313,0.806-5.036,1.844-9.977,1.844c-3.538,0-6.074-0.537-7.53-1.05c0.078-0.394,0.155-0.8,0.227-1.134
		c0.68-3.306,1.528-7.423-1.14-10.711c-4.881-6.056-14.159-6.874-22.585-6.874c-2.458,0-4.976,0.072-7.465,0.143
		c-2.303,0.066-4.577,0.131-6.731,0.131c-2.327,0-3.055-0.459-3.192-0.668c-1.45-2.136-3.324-3.222-5.561-3.222
		c-3.628,0-5.179,2.327-7.99,6.54c-9.398,14.076,9.452,27.567,26.696,39.519c-2.584-1.038-5.454-1.975-8.652-2.673
		c-3.813-0.841-8.628-0.591-13.652-0.107c-2.339,0.227-4.726,0.465-7.118,0.465c-6.104,0-13.109-1.211-18.867-15.675
		c-5.919-14.893-7.727-18.527-9.642-22.376c-1.736-3.485-3.526-7.089-9.225-21.338c-2.184-5.454-2.667-11.295-1.617-17.745
		c29.918-30.974,71.829-50.301,118.192-50.301c1.408,0,2.81,0.072,4.213,0.107C184.221,18.157,189.711,25.58,195.713,27.078z
		 M208.071,261.981c-0.776-6.086-5.484-11.904-14.822-18.324c-12.334-8.479-23.599-10.973-31.052-12.62
		c-2.613-0.579-5.8-1.289-6.987-1.927c0-0.078,0.006-0.173,0.018-0.286c0.627-5.859-0.901-10.943-2.13-15.031
		c-1.915-6.349-1.73-7.208,0.084-8.759c1.677-1.438,3.216-2.524,4.565-3.485c6.862-4.887,10.913-8.891,9.225-23.146
		c-1.754-14.971-13.181-23.903-23.283-27.269c-0.251-0.084-0.632-0.274-1.08-0.531c17.155,7.339,35.157,9.225,41.416,9.225
		c1.343,0,2.971-0.089,4.845-0.191c2.214-0.125,4.803-0.274,7.638-0.274c9.499,0,16.922,1.742,23.366,5.49
		c4.469,2.596,7.28,4.022,9.446,5.126c4.744,2.417,5.871,2.989,17.745,13.575c17.817,15.848,24.989,18.527,37.484,18.527
		c5.137,0,9.774-2.023,13.497-3.646c0.316-0.131,0.65-0.28,0.991-0.43c0.215,3.055,0.889,5.895,1.504,8.455
		c1.862,7.829,2.804,11.767-7.459,18.08c-9.523,5.848-18.485,17.023-27.149,27.824c-8.521,10.615-18.169,22.644-24.709,23.832
		c-11.558,2.106-20.902,6.283-28.414,9.636c-3.407,1.522-6.349,2.834-8.891,3.682c-6.259,2.112-14.714,3.437-22.179,4.6
		c-2.214,0.352-4.326,0.68-6.247,1.014c-4.254,0.692-8.622-3.694-9.804-5.126l-0.334-0.412c2.888,0.125,5.573,0.34,8.031,0.537
		c3.109,0.251,5.877,0.465,8.318,0.465c3.294,0,12.023,0,16.409-8.753c0.65-1.313,1.963-2.822,3.353-4.415
		C204.622,273.79,208.948,268.819,208.071,261.981z"/>
</g>
<g>
</g>
<g>
</g>
<g>
</g>
<g>
</g>
<g>
</g>
<g>
</g>
<g>
</g>
<g>
</g>
<g>
</g>
<g>
</g>
<g>
</g>
<g>
</g>
<g>
</g>
<g>
</g>
<g>
</g>
</svg>
